#Comment line ignore any data following # character 
#Hierarchical Translation and Rotation (.htr) file 
[Header]	
#Header keywords are followed by a single value 
FileType HTR		#Single word string
DataType HTRS		#Translation followed by rotation and scale data
FileVersion 1		#integer
NumSegments 64		#integer
NumFrames 3		#integer
DataFrameRate 30		#integer, data frame rate in this file
EulerRotationOrder ZYX
CalibrationUnits mm
RotationUnits Degrees
GlobalAxisofGravity Y
BoneLengthAxis Y
ScaleFactor 1.00
[SegmentNames&Hierarchy]
#CHILD	PARENT
Pinger_Root GLOBAL
Pelvis Pinger_Root
L_Hip Pelvis
R_Hip Pelvis
Rear_Leg01 Pelvis
Spine1 Pelvis
L_Leg01 L_Hip
L_Leg02 L_Leg01
L_Leg03 L_Leg02
L_Foot L_Leg03
L_Toe1_01 L_Foot
L_Toe2_01 L_Foot
L_Toe3_01 L_Foot
planeAlignerLeft L_Foot
L_Toe1_02 L_Toe1_01
L_Toe1_03 L_Toe1_02
L_Toe2_02 L_Toe2_01
L_Toe2_03 L_Toe2_02
L_Toe3_02 L_Toe3_01
L_Toe3_03 L_Toe3_02
planeLockWeightLeft planeAlignerLeft
R_Leg01 R_Hip
R_Leg02 R_Leg01
R_Leg03 R_Leg02
R_Foot R_Leg03
planeAlignerRight R_Foot
R_Toe1_01 R_Foot
R_Toe2_01 R_Foot
R_Toe3_01 R_Foot
planeLockWeightRight planeAlignerRight
R_Toe1_02 R_Toe1_01
R_Toe1_03 R_Toe1_02
R_Toe2_02 R_Toe2_01
R_Toe2_03 R_Toe2_02
R_Toe3_02 R_Toe3_01
R_Toe3_03 R_Toe3_02
Rear_Leg02 Rear_Leg01
Rear_Leg03 Rear_Leg02
Rear_Leg04 Rear_Leg03
Rear_Foot Rear_Leg04
planeAlignerCenter Rear_Foot
Rear_Toe1_01 Rear_Foot
Rear_Toe2_01 Rear_Foot
Rear_Toe3_01 Rear_Foot
planeLockWeightCenter planeAlignerCenter
Rear_Toe1_02 Rear_Toe1_01
Rear_Toe1_03 Rear_Toe1_02
Rear_Toe2_02 Rear_Toe2_01
Rear_Toe2_03 Rear_Toe2_02
Rear_Toe3_02 Rear_Toe3_01
Rear_Toe3_03 Rear_Toe3_02
Back_Bone Spine1
Head Spine1
Motor_Bone Back_Bone
Ping_Mechanism Back_Bone
BN_LookIK Head
bottomMouth Head
L_Mouth01 Head
L_mouthFront Head
mouthGun Head
R_Mouth01 Head
R_mouthFront Head
TopMouth Head
weapon_bone Head
[BasePosition]
#SegmentName Tx, Ty, Tz, Rx, Ry, Rz, BoneLength
Pinger_Root 0.000000 0.000000 0.000000 -90.000000 0.000000 0.000000 10.000000 
Pelvis 0.000000 0.000000 0.000000 0.000000 0.000000 0.000000 10.000000 
L_Hip 0.000000 0.000000 0.000000 0.000000 0.000000 0.000000 10.000000 
R_Hip 0.000000 0.000000 0.000000 0.000000 0.000000 0.000000 10.000000 
Rear_Leg01 0.000000 0.000000 0.000000 0.000000 0.000000 0.000000 10.000000 
Spine1 0.000000 0.000000 0.000000 0.000000 0.000000 0.000000 10.000000 
L_Leg01 0.000000 0.000000 0.000000 0.000000 0.000000 0.000000 10.000000 
L_Leg02 0.000000 0.000000 0.000000 0.000000 0.000000 0.000000 10.000000 
L_Leg03 0.000000 0.000000 0.000000 0.000000 0.000000 0.000000 10.000000 
L_Foot 0.000000 0.000000 0.000000 0.000000 0.000000 0.000000 10.000000 
L_Toe1_01 0.000000 0.000000 0.000000 0.000000 0.000000 0.000000 10.000000 
L_Toe2_01 0.000000 0.000000 0.000000 0.000000 0.000000 0.000000 10.000000 
L_Toe3_01 0.000000 0.000000 0.000000 0.000000 0.000000 0.000000 10.000000 
planeAlignerLeft 0.000000 0.000000 0.000000 0.000000 0.000000 0.000000 10.000000 
L_Toe1_02 0.000000 0.000000 0.000000 0.000000 0.000000 0.000000 10.000000 
L_Toe1_03 0.000000 0.000000 0.000000 0.000000 0.000000 0.000000 10.000000 
L_Toe2_02 0.000000 0.000000 0.000000 0.000000 0.000000 0.000000 10.000000 
L_Toe2_03 0.000000 0.000000 0.000000 0.000000 0.000000 0.000000 10.000000 
L_Toe3_02 0.000000 0.000000 0.000000 0.000000 0.000000 0.000000 10.000000 
L_Toe3_03 0.000000 0.000000 0.000000 0.000000 0.000000 0.000000 10.000000 
planeLockWeightLeft 0.000000 0.000000 0.000000 0.000000 0.000000 0.000000 10.000000 
R_Leg01 0.000000 0.000000 0.000000 0.000000 0.000000 0.000000 10.000000 
R_Leg02 0.000000 0.000000 0.000000 0.000000 0.000000 0.000000 10.000000 
R_Leg03 0.000000 0.000000 0.000000 0.000000 0.000000 0.000000 10.000000 
R_Foot 0.000000 0.000000 0.000000 0.000000 0.000000 0.000000 10.000000 
planeAlignerRight 0.000000 0.000000 0.000000 0.000000 0.000000 0.000000 10.000000 
R_Toe1_01 0.000000 0.000000 0.000000 0.000000 0.000000 0.000000 10.000000 
R_Toe2_01 0.000000 0.000000 0.000000 0.000000 0.000000 0.000000 10.000000 
R_Toe3_01 0.000000 0.000000 0.000000 0.000000 0.000000 0.000000 10.000000 
planeLockWeightRight 0.000000 0.000000 0.000000 0.000000 0.000000 0.000000 10.000000 
R_Toe1_02 0.000000 0.000000 0.000000 0.000000 0.000000 0.000000 10.000000 
R_Toe1_03 0.000000 0.000000 0.000000 0.000000 0.000000 0.000000 10.000000 
R_Toe2_02 0.000000 0.000000 0.000000 0.000000 0.000000 0.000000 10.000000 
R_Toe2_03 0.000000 0.000000 0.000000 0.000000 0.000000 0.000000 10.000000 
R_Toe3_02 0.000000 0.000000 0.000000 0.000000 0.000000 0.000000 10.000000 
R_Toe3_03 0.000000 0.000000 0.000000 0.000000 0.000000 0.000000 10.000000 
Rear_Leg02 0.000000 0.000000 0.000000 0.000000 0.000000 0.000000 10.000000 
Rear_Leg03 0.000000 0.000000 0.000000 0.000000 0.000000 0.000000 10.000000 
Rear_Leg04 0.000000 0.000000 0.000000 0.000000 0.000000 0.000000 10.000000 
Rear_Foot 0.000000 0.000000 0.000000 0.000000 0.000000 0.000000 10.000000 
planeAlignerCenter 0.000000 0.000000 0.000000 0.000000 0.000000 0.000000 10.000000 
Rear_Toe1_01 0.000000 0.000000 0.000000 0.000000 0.000000 0.000000 10.000000 
Rear_Toe2_01 0.000000 0.000000 0.000000 0.000000 0.000000 0.000000 10.000000 
Rear_Toe3_01 0.000000 0.000000 0.000000 0.000000 0.000000 0.000000 10.000000 
planeLockWeightCenter 0.000000 0.000000 0.000000 0.000000 0.000000 0.000000 10.000000 
Rear_Toe1_02 0.000000 0.000000 0.000000 0.000000 0.000000 0.000000 10.000000 
Rear_Toe1_03 0.000000 0.000000 0.000000 0.000000 0.000000 0.000000 10.000000 
Rear_Toe2_02 0.000000 0.000000 0.000000 0.000000 0.000000 0.000000 10.000000 
Rear_Toe2_03 0.000000 0.000000 0.000000 0.000000 0.000000 0.000000 10.000000 
Rear_Toe3_02 0.000000 0.000000 0.000000 0.000000 0.000000 0.000000 10.000000 
Rear_Toe3_03 0.000000 0.000000 0.000000 0.000000 0.000000 0.000000 10.000000 
Back_Bone 0.000000 0.000000 0.000000 0.000000 0.000000 0.000000 10.000000 
Head 0.000000 0.000000 0.000000 0.000000 0.000000 0.000000 10.000000 
Motor_Bone 0.000000 0.000000 0.000000 0.000000 0.000000 0.000000 10.000000 
Ping_Mechanism 0.000000 0.000000 0.000000 0.000000 0.000000 0.000000 10.000000 
BN_LookIK 0.000000 0.000000 0.000000 0.000000 0.000000 0.000000 10.000000 
bottomMouth 0.000000 0.000000 0.000000 0.000000 0.000000 0.000000 10.000000 
L_Mouth01 0.000000 0.000000 0.000000 0.000000 0.000000 0.000000 10.000000 
L_mouthFront 0.000000 0.000000 0.000000 0.000000 0.000000 0.000000 10.000000 
mouthGun 0.000000 0.000000 0.000000 0.000000 0.000000 0.000000 10.000000 
R_Mouth01 0.000000 0.000000 0.000000 0.000000 0.000000 0.000000 10.000000 
R_mouthFront 0.000000 0.000000 0.000000 0.000000 0.000000 0.000000 10.000000 
TopMouth 0.000000 0.000000 0.000000 0.000000 0.000000 0.000000 10.000000 
weapon_bone 0.000000 0.000000 0.000000 0.000000 0.000000 0.000000 10.000000 
#Beginning of Data. Separated by tabs
#Fr	Tx	Ty	Tz	Rx	Ry	Rz	SF
[Pinger_Root]
6 0.000000 0.000000 0.000000 -0.000075 -0.000000 -0.000020 0.000000
7 0.000000 0.000000 0.000000 -0.000075 -0.000000 -0.000020 0.000000
8 0.000000 0.000000 0.000000 -0.000075 -0.000000 -0.000020 0.000000
[Pelvis]
6 89.574509 845.826477 4506.073242 -160.117737 -79.281860 170.272720 4585.645508
7 88.952011 817.120972 4534.479004 -159.427307 -79.735382 173.260208 4608.373047
8 86.771767 784.497131 4566.126465 -158.844254 -80.195297 176.356293 4633.840332
[L_Hip]
6 5.766392 125.831482 872.656799 159.754120 -51.091709 119.737877 881.701050
7 5.766392 125.831482 872.656799 159.731537 -53.375641 118.685387 881.701050
8 5.766392 125.831482 872.656799 159.782013 -55.659439 117.573936 881.701050
[R_Hip]
6 5.765438 125.836372 -872.654907 37.550270 55.108337 124.680832 881.699829
7 5.765438 125.836372 -872.654907 37.241486 56.970745 124.248848 881.699829
8 5.765438 125.836372 -872.654907 36.616173 59.308807 123.600716 881.699829
[Rear_Leg01]
6 -192.298416 -925.602966 -0.001907 179.752487 -18.357489 -153.812317 945.367432
7 -192.298416 -925.602966 -0.001907 -177.929062 -20.561646 -151.804352 945.367432
8 -192.298416 -925.602966 -0.001907 -175.697571 -22.812063 -149.536530 945.367432
[Spine1]
6 290.604584 5.007505 0.000477 -3.991747 14.095705 20.824291 290.647736
7 290.604584 5.007505 0.000477 -6.646163 15.021851 21.058956 290.647736
8 290.604584 5.007505 0.000477 -9.512300 15.600241 21.183910 290.647736
[L_Leg01]
6 761.932007 -0.002384 -0.069261 40.669411 -16.838148 -7.730898 761.932068
7 761.932007 -0.002384 -0.069261 44.176434 -4.858679 -18.652302 761.932068
8 761.932007 -0.002384 -0.069261 44.883541 5.430350 -28.072691 761.932068
[L_Leg02]
6 1441.140503 -0.000954 -0.000715 6.862017 -0.232059 -168.471725 1441.140503
7 1441.140503 -0.000954 -0.000715 5.729720 -0.293936 -158.901093 1441.140503
8 1441.140503 -0.000954 -0.000715 3.863151 -0.304979 -143.104630 1441.140503
[L_Leg03]
6 1686.963989 -0.000715 -0.000954 -0.036372 0.017194 120.568344 1686.963989
7 1686.963989 -0.000715 -0.000954 -0.034048 0.012559 119.420425 1686.963989
8 1686.963989 -0.000715 -0.000954 -0.027455 0.010325 117.526833 1686.963989
[L_Foot]
6 3041.570068 -30.715107 11.297464 -1.257646 10.952289 85.733368 3041.746094
7 3041.570068 -30.715107 11.297464 -6.001875 11.784017 86.544472 3041.746094
8 3041.570068 -30.715107 11.297464 -10.965140 13.096678 80.233490 3041.746094
[L_Toe1_01]
6 -188.216690 -224.732346 -21.137953 92.276901 -7.275240 -172.413010 293.899567
7 -188.216690 -224.732346 -21.137953 88.852821 -3.936166 -169.263824 293.899567
8 -188.216690 -224.732346 -21.137953 85.540268 -0.408221 -166.928467 293.899567
[L_Toe2_01]
6 200.746536 -219.926590 148.838394 -84.959328 -18.602047 -56.951462 332.896027
7 200.746536 -219.926590 148.838394 -82.731972 -13.271568 -57.014664 332.896027
8 200.746536 -219.926590 148.838394 -80.114082 -7.486284 -57.876278 332.896027
[L_Toe3_01]
6 188.832520 -219.859131 -191.078659 -98.318039 10.297236 -70.163704 347.140900
7 188.832520 -219.859131 -191.078659 -98.481552 15.083721 -69.629623 347.140900
8 188.832520 -219.859131 -191.078659 -98.949829 20.892954 -69.862198 347.140900
[planeAlignerLeft]
6 50.260754 -703.229675 58.124050 169.187469 -80.636765 93.410904 707.415344
7 11.711578 -698.436157 -10.105897 169.537735 -83.154015 95.034126 698.607422
8 -26.837616 -693.642578 -78.335876 169.146118 -85.671387 97.394127 698.567627
[L_Toe1_02]
6 413.761139 0.000477 0.000000 0.001512 -11.849524 0.001512 413.761139
7 413.761139 0.000477 0.000000 0.001520 -11.093994 0.001520 413.761139
8 413.761139 0.000477 0.000000 0.001516 -11.412053 0.001516 413.761139
[L_Toe1_03]
6 464.317322 0.000358 -0.000089 -179.999115 65.200073 -179.995544 464.317322
7 464.317322 0.000358 -0.000089 -179.999313 63.238201 -179.995712 464.317322
8 464.317322 0.000358 -0.000089 -179.999222 64.070564 -179.995651 464.317322
[L_Toe2_02]
6 342.235809 -0.000477 0.000238 0.004684 -81.149315 0.004684 342.235809
7 342.235809 -0.000477 0.000238 0.004685 -80.996498 0.004685 342.235809
8 342.235809 -0.000477 0.000238 0.004685 -80.843628 0.004685 342.235809
[L_Toe2_03]
6 420.210846 -0.000715 0.000000 179.992783 50.963783 -179.999802 420.210846
7 420.210846 -0.000715 0.000000 179.993347 40.625500 -179.998962 420.210846
8 420.210846 -0.000715 0.000000 179.993546 33.979733 -179.998550 420.210846
[L_Toe3_02]
6 329.270111 0.000954 0.000000 0.004675 -84.653168 0.004675 329.270111
7 329.270111 0.000954 0.000000 0.004675 -84.630493 0.004675 329.270111
8 329.270111 0.000954 0.000000 0.004675 -84.607735 0.004675 329.270111
[L_Toe3_03]
6 439.137451 -0.001907 0.000954 179.992905 49.135326 -179.999634 439.137451
7 439.137451 -0.001907 0.000954 179.993240 43.146225 -179.999146 439.137451
8 439.137451 -0.001907 0.000954 179.993408 38.968674 -179.998840 439.137451
[planeLockWeightLeft]
6 0.000153 0.000153 -0.000305 -0.011826 -0.004376 0.005620 0.000374
7 0.000153 0.000076 -0.000305 -0.011826 -0.004376 0.005620 0.000350
8 0.000153 0.000000 -0.000305 -0.011826 -0.004376 0.005620 0.000341
[R_Leg01]
6 761.455627 -0.001907 -0.000358 128.868057 7.585559 57.909458 761.455688
7 761.455627 -0.001907 -0.000358 128.568115 9.154522 59.858387 761.455688
8 761.455627 -0.001907 -0.000358 127.930183 8.564942 60.203861 761.455688
[R_Leg02]
6 1441.140625 0.000000 -0.000238 -0.101749 0.103480 -86.438896 1441.140625
7 1441.140625 0.000000 -0.000238 -0.007881 0.121799 -84.239250 1441.140625
8 1441.140625 0.000000 -0.000238 -0.063805 0.105406 -87.105759 1441.140625
[R_Leg03]
6 1686.963989 0.000954 0.001431 0.027717 -0.014142 118.087074 1686.963989
7 1686.963989 0.000954 0.001431 0.021138 -0.012094 116.174255 1686.963989
8 1686.963989 0.000954 0.001431 0.018571 -0.007784 115.479591 1686.963989
[R_Foot]
6 3041.560059 -30.531288 -11.204481 1.357868 -31.604485 53.140636 3041.734131
7 3041.560059 -30.531288 -11.204481 1.944457 -34.041309 53.488461 3041.734131
8 3041.560059 -30.531288 -11.204481 2.324015 -36.564209 55.094315 3041.734131
[planeAlignerRight]
6 -142.928757 -443.119690 -340.984558 -36.577137 -71.339012 -64.343925 577.108398
7 -144.193405 -432.644440 -343.228058 -36.577137 -71.339012 -64.343925 570.770081
8 -139.008484 -465.801910 -334.419006 -36.577137 -71.339012 -64.343925 590.026123
[R_Toe1_01]
6 -188.383347 -224.864899 21.052242 76.246101 0.837939 -179.740616 294.101532
7 -188.383347 -224.864899 21.052242 76.016533 0.927695 179.749985 294.101532
8 -188.383347 -224.864899 21.052242 75.700813 0.423223 -178.677322 294.101532
[R_Toe2_01]
6 200.637817 -220.002121 -148.787384 -90.435341 37.148014 -51.588806 332.857574
7 200.637817 -220.002121 -148.787384 -90.718681 37.369564 -50.887554 332.857574
8 200.637817 -220.002121 -148.787384 -92.116898 35.865574 -52.937542 332.857574
[R_Toe3_01]
6 188.606735 -220.092957 191.126343 -72.905304 -9.645492 -64.577339 347.192566
7 188.606735 -220.092957 191.126343 -72.589569 -9.698241 -63.696850 347.192566
8 188.606735 -220.092957 191.126343 -71.872917 -9.212069 -66.269142 347.192566
[planeLockWeightRight]
6 999.999878 0.000305 -0.000591 -0.011823 -0.004379 -0.000027 999.999878
7 999.999878 0.000305 -0.000586 -0.011823 -0.004379 -0.000027 999.999878
8 999.999878 0.000305 -0.000580 -0.011823 -0.004379 -0.000027 999.999878
[R_Toe1_02]
6 413.762085 0.000477 -0.000119 0.000006 -25.434675 -0.000005 413.762085
7 413.762085 0.000477 -0.000119 0.000006 -25.434675 -0.000005 413.762085
8 413.762085 0.000477 -0.000119 0.000006 -25.434675 -0.000005 413.762085
[R_Toe1_03]
6 464.317810 0.000000 0.001088 0.007023 70.759872 0.007023 464.317810
7 464.317810 0.000000 0.001088 0.007014 70.735603 0.007014 464.317810
8 464.317810 0.000000 0.001088 0.007123 71.033066 0.007123 464.317810
[R_Toe2_02]
6 342.234741 -0.000954 0.000238 0.001188 -72.402016 0.001188 342.234741
7 342.234741 -0.000954 0.000238 0.001187 -72.684181 0.001187 342.234741
8 342.234741 -0.000954 0.000238 0.001189 -71.723167 0.001189 342.234741
[R_Toe2_03]
6 420.210846 0.000715 -0.000268 0.029872 85.496674 0.029872 420.210846
7 420.210846 0.000715 -0.000268 0.036229 86.287117 0.036229 420.210846
8 420.210846 0.000715 -0.000268 0.021533 83.751099 0.021533 420.210846
[R_Toe3_02]
6 329.270355 -0.000477 -0.000954 0.001177 -81.136299 0.001177 329.270355
7 329.270355 -0.000477 -0.000954 0.001177 -81.462265 0.001177 329.270355
8 329.270355 -0.000477 -0.000954 0.001178 -80.260231 0.001178 329.270355
[R_Toe3_03]
6 439.137939 0.000238 0.001431 -179.997101 75.839745 -179.993576 439.137939
7 439.137939 0.000238 0.001431 -179.997543 74.324081 -179.994019 439.137939
8 439.137939 0.000238 0.001431 -179.995560 79.374771 -179.992050 439.137939
[Rear_Leg02]
6 1162.777710 -0.029802 0.005960 0.773567 -7.793105 -108.905357 1162.777710
7 1162.777710 -0.029802 0.005960 0.837948 -9.628004 -104.783813 1162.777710
8 1162.777710 -0.029802 0.005960 0.823337 -11.640909 -99.990211 1162.777710
[Rear_Leg03]
6 607.192505 -0.013351 -0.073195 0.006512 -0.001992 62.225967 607.192505
7 607.192505 -0.013351 -0.073195 0.006518 -0.001975 61.931580 607.192505
8 607.192505 -0.013351 -0.073195 0.006523 -0.001958 61.637192 607.192505
[Rear_Leg04]
6 995.874512 -0.020504 -0.011921 -0.039976 -0.016535 54.330036 995.874573
7 995.874512 -0.020504 -0.011921 -0.039932 -0.016642 54.024292 995.874573
8 995.874512 -0.020504 -0.011921 -0.039823 -0.016909 53.260571 995.874573
[Rear_Foot]
6 3096.176270 -0.067472 -0.041425 -145.924164 77.845222 42.857838 3096.176270
7 3096.176270 -0.067472 -0.041425 -142.968842 75.636436 44.507015 3096.176270
8 3096.176270 -0.067472 -0.041425 -140.621918 73.411400 45.540642 3096.176270
[planeAlignerCenter]
6 -0.974693 -25.566919 -636.896118 12.240773 -0.001473 179.998184 637.409851
7 -1.445885 -35.958355 -634.726929 12.240769 -0.001473 179.998184 635.746338
8 -1.917076 -46.349789 -632.557739 12.240773 -0.001473 179.998184 634.256470
[Rear_Toe1_01]
6 0.653352 83.966492 -371.173737 0.311500 31.285730 90.507133 380.553192
7 0.653352 83.966492 -371.173737 0.328430 30.895576 90.536308 380.553192
8 0.653352 83.966492 -371.173737 0.345059 30.505411 90.565216 380.553192
[Rear_Toe2_01]
6 178.200760 -294.826019 -362.060547 -7.377527 26.913198 -66.568909 499.765686
7 178.200760 -294.826019 -362.060547 -7.107363 26.774258 -66.681709 499.765686
8 178.200760 -294.826019 -362.060547 -6.837224 26.635803 -66.795135 499.765686
[Rear_Toe3_01]
6 -153.359680 -308.780914 -362.060852 3.856488 26.210575 -112.266518 499.952881
7 -153.359680 -308.780914 -362.060852 3.908119 25.995573 -112.093887 499.952881
8 -153.359680 -308.780914 -362.060852 3.958943 25.780445 -111.921822 499.952881
[planeLockWeightCenter]
6 1000.000244 0.000509 -0.000095 -0.011814 -0.004373 -0.000015 1000.000244
7 1000.000244 0.000488 -0.000101 -0.011814 -0.004373 -0.000015 1000.000244
8 1000.000244 0.000468 -0.000107 -0.011814 -0.004373 -0.000015 1000.000244
[Rear_Toe1_02]
6 379.707825 0.194073 0.000477 -0.000767 -33.624729 0.000838 379.707855
7 379.707825 0.194073 0.000477 -0.000767 -33.624729 0.000838 379.707855
8 379.707825 0.194073 0.000477 -0.000767 -33.624729 0.000838 379.707855
[Rear_Toe1_03]
6 500.129700 0.165701 0.000119 0.008004 73.131546 0.008004 500.129761
7 500.129700 0.165701 0.000119 0.009104 75.182060 0.009104 500.129761
8 500.129700 0.165701 0.000119 0.010555 77.231842 0.010555 500.129761
[Rear_Toe2_02]
6 340.494507 0.000238 -0.000954 0.001189 -71.612801 0.001189 340.494507
7 340.494507 0.000238 -0.000954 0.001191 -70.504303 0.001191 340.494507
8 340.494507 0.000238 -0.000954 0.001193 -69.395836 0.001193 340.494507
[Rear_Toe2_03]
6 433.103577 0.000000 0.000238 0.007749 72.575714 0.007749 433.103546
7 433.103577 0.000000 0.000238 0.007036 70.796272 0.007036 433.103546
8 433.103577 0.000000 0.000238 0.006414 68.914200 0.006414 433.103546
[Rear_Toe3_02]
6 340.494141 -0.000358 -0.000477 0.003110 -68.649918 -0.001610 340.494171
7 340.494141 -0.000358 -0.000477 0.004756 -67.336357 -0.004145 340.494171
8 340.494141 -0.000358 -0.000477 0.006173 -66.022797 -0.006455 340.494171
[Rear_Toe3_03]
6 433.103577 0.001431 -0.000238 0.002460 68.001450 0.000679 433.103546
7 433.103577 0.001431 -0.000238 -0.000981 66.035660 -0.004556 433.103546
8 433.103577 0.001431 -0.000238 -0.000756 63.953945 -0.004345 433.103546
[Back_Bone]
6 1312.175781 -701.934692 0.000954 0.904015 0.255072 -85.360664 1488.125488
7 1312.175781 -701.934692 0.000954 0.789553 0.306040 -85.311317 1488.125488
8 1312.175781 -701.934692 0.000954 0.523224 0.389008 -85.227188 1488.125488
[Head]
6 1406.159424 809.709290 0.001431 -1.204280 0.051949 7.290009 1622.625488
7 1406.159424 809.709290 0.001431 -1.590615 0.531867 7.126382 1622.625488
8 1406.159424 809.709290 0.001431 -2.179479 1.208910 6.830356 1622.625488
[Motor_Bone]
6 1158.364380 -417.834747 0.000477 -0.453235 0.087121 -105.903557 1231.419434
7 1158.364380 -417.834747 0.000477 -0.524805 0.089334 -105.901138 1231.419434
8 1158.364380 -417.834747 0.000477 -0.596375 0.091550 -105.898720 1231.419434
[Ping_Mechanism]
6 1227.657715 -433.598938 -51.499866 0.000103 -0.000053 82.120995 1302.997925
7 1225.124512 -432.479370 -50.831905 0.000103 -0.000053 82.120995 1300.212402
8 1222.591187 -431.359863 -50.163944 0.000103 -0.000053 82.120995 1297.427002
[BN_LookIK]
6 193.241119 1380.371704 -0.002861 0.000000 89.965736 -31.038179 1393.832153
7 193.241119 1380.371704 -0.002861 0.000000 89.965736 -31.038179 1393.832153
8 193.241119 1380.371704 -0.002861 0.000000 89.965736 -31.038179 1393.832153
[bottomMouth]
6 -435.092926 615.759399 -0.000954 -0.000022 0.000016 73.527184 753.966492
7 -435.092926 615.759399 -0.000954 -0.000022 0.000016 73.527184 753.966492
8 -435.092926 615.759399 -0.000954 -0.000022 0.000016 73.527184 753.966492
[L_Mouth01]
6 554.440979 7.658243 838.222046 150.204178 23.759130 109.605339 1005.027161
7 554.440979 7.658243 838.222046 150.204178 23.759130 109.605339 1005.027161
8 554.440979 7.658243 838.222046 150.204178 23.759130 109.605339 1005.027161
[L_mouthFront]
6 551.629089 934.514771 339.150421 0.000081 2.804060 79.119301 1136.941284
7 551.629089 934.514771 339.150421 0.000081 2.804060 79.119301 1136.941284
8 551.629089 934.514771 339.150421 0.000081 2.804060 79.119301 1136.941284
[mouthGun]
6 55.332661 1627.420898 0.000000 0.000023 0.000009 -11.038128 1628.361328
7 55.332661 1627.420898 0.000000 0.000023 0.000009 -11.038128 1628.361328
8 55.332661 1627.420898 0.000000 0.000023 0.000009 -11.038128 1628.361328
[R_Mouth01]
6 554.442383 7.659197 -838.223938 29.795891 -23.759109 109.605331 1005.029541
7 554.442383 7.659197 -838.223938 29.795891 -23.759109 109.605331 1005.029541
8 554.442383 7.659197 -838.223938 29.795891 -23.759109 109.605331 1005.029541
[R_mouthFront]
6 551.629089 934.514282 -339.151367 0.000029 -2.803930 79.119133 1136.941162
7 551.629089 934.514282 -339.151367 0.000029 -2.803930 79.119133 1136.941162
8 551.629089 934.514282 -339.151367 0.000029 -2.803930 79.119133 1136.941162
[TopMouth]
6 461.269867 -56.106091 -0.008583 -0.000059 -0.000268 92.025169 464.669525
7 461.269867 -56.106091 -0.008583 -0.000059 -0.000268 92.025169 464.669525
8 461.269867 -56.106091 -0.008583 -0.000059 -0.000268 92.025169 464.669525
[weapon_bone]
6 -987.239868 1448.372803 0.001431 0.000000 89.965736 -31.038221 1752.833740
7 -987.239868 1448.372803 0.001431 0.000000 89.965736 -31.038221 1752.833740
8 -987.239868 1448.372803 0.001431 0.000000 89.965736 -31.038221 1752.833740
